<svg id="Layer_1" data-name="Layer 1" xmlns="http://www.w3.org/2000/svg" viewBox="0 0 408.76 409.6">
  <g>
    <path d="M272.22,78.93h24a22,22,0,0,0,3.08.66c32,2.26,61.88,11.42,89.18,28.18,52.95,32.52,85.54,79.39,97,140.72,1.43,7.68,2.14,15.49,3.18,23.24v24c-.33,2.88-.66,5.75-1,8.63-4.89,44.07-21.69,82.95-51.34,115.91-31.47,35-70.47,56.85-116.87,65.07-7.69,1.37-15.49,2.14-23.23,3.19h-24c-1.29-.24-2.58-.53-3.88-.72-8.93-1.29-18-2-26.78-3.93-48.93-10.65-88.89-35.94-119.36-75.66-32.81-42.77-46.45-91.46-41.3-145,4.15-43.27,20.89-81.5,49.61-114.16C162.2,113,201.71,90.55,249,82.12,256.68,80.74,264.47,80,272.22,78.93ZM456.85,283.8c.09-95.36-77.12-172.84-172.48-173.06-95.06-.22-172.47,77.14-172.82,172.72-.36,95.32,77.36,173.3,172.68,173.26S456.76,379.29,456.85,283.8Z" transform="translate(-79.84 -78.93)"/>
    <path d="M268.3,237.33c0-15.46-.09-30.92,0-46.39.1-12.15,10.59-19.89,21.34-16,6.68,2.45,10.41,8.37,10.42,16.77,0,26.8.07,53.59-.07,80.39,0,3.51.92,5.75,3.85,7.91q26.34,19.44,52.37,39.3c7.89,6,9.37,15.64,3.8,22.86s-15,8.26-22.71,2.5c-14.64-10.87-29.17-21.88-43.75-32.83-5.64-4.24-11.17-8.64-16.94-12.68s-8.44-9.57-8.38-16.67C268.39,267.46,268.3,252.4,268.3,237.33Z" transform="translate(-79.84 -78.93)"/>
  </g>
</svg>
