<svg id="Layer_1" data-name="Layer 1" xmlns="http://www.w3.org/2000/svg" viewBox="0 0 409.05 364.51">
  <defs>
    <style>
      .cls-1 {
        fill: #fff;
      }
    </style>
  </defs>
  <g>
    <path d="M488.6,233.33c-1.41,8-2.4,16-4.31,23.91-5.05,20.77-15.19,39.13-27.85,56.13-19.54,26.23-43.3,48.4-67.82,69.77q-43.37,37.8-87,75.26c-11.15,9.61-23.14,10-33.89.69-37.79-32.83-75.68-65.57-113-98.92-19.2-17.14-36.44-36.25-50.5-58-25.2-39-32-80.79-16.06-124.72,14.44-39.72,42.47-65.71,84.57-73.84,43.63-8.44,78.77,7.22,106.68,40.89,1.35,1.64,2.62,3.36,3.94,5a8.31,8.31,0,0,0,1.05.88c1.51-1.94,3-3.9,4.55-5.8,16.17-19.84,35.9-34.37,61.13-40.36,44-10.43,90.69,8,116.09,45.4,12.54,18.48,19.49,38.89,21.73,61,.15,1.43.48,2.84.72,4.26ZM284.16,441.69c1.94-1.64,3.66-3.09,5.36-4.55q24.53-21.09,49.05-42.2c27.42-23.65,55.23-46.89,79.95-73.49,14.36-15.47,27.6-31.85,36-51.45,15.91-37.06,14-73.17-8.44-107-28.29-42.63-93.13-53.75-132.75-9.72-5.67,6.3-10.5,13.39-15.49,20.27-2.66,3.68-5.54,6.79-10.13,7.84-7,1.59-12.69-.92-17.14-7.93a131.12,131.12,0,0,0-23.56-28c-34.93-31.11-89.08-25.14-117.8,8.86-29,34.38-32.56,73.48-15.82,114.59,8.2,20.13,21.4,37.25,36.62,52.42,19.41,19.35,39.49,38.07,59.93,56.32C234.19,399.31,259.12,420.15,284.16,441.69Z" transform="translate(-79.55 -101.35)"/>
    <path class="cls-1" d="M284.16,441.69c-25-21.54-50-42.38-74.2-64-20.44-18.25-40.52-37-59.93-56.32-15.22-15.17-28.42-32.29-36.62-52.42-16.74-41.11-13.22-80.21,15.82-114.59,28.72-34,82.87-40,117.8-8.86a131.12,131.12,0,0,1,23.56,28c4.45,7,10.19,9.52,17.14,7.93,4.59-1.05,7.47-4.16,10.13-7.84,5-6.88,9.82-14,15.49-20.27,39.62-44,104.46-32.91,132.75,9.72,22.43,33.79,24.35,69.9,8.44,107-8.42,19.6-21.66,36-36,51.45-24.72,26.6-52.53,49.84-79.95,73.49q-24.49,21.13-49.05,42.2C287.82,438.6,286.1,440.05,284.16,441.69Z" transform="translate(-79.55 -101.35)"/>
  </g>
</svg>
