<?xml version="1.0" encoding="utf-8"?>
<!-- Generator: Adobe Illustrator 26.0.0, SVG Export Plug-In . SVG Version: 6.00 Build 0)  -->
<svg version="1.1" id="Layer_1" xmlns="http://www.w3.org/2000/svg" xmlns:xlink="http://www.w3.org/1999/xlink" x="0px" y="0px"
	 viewBox="0 0 408.8 392.4" style="enable-background:new 0 0 408.8 392.4;" xml:space="preserve">
<style type="text/css">
	.st0{fill:#FFFFFF;}
</style>
<g>
	<g id="XMLID_00000181788730661115111240000008207455966667118497_">
		<g>
			<path d="M408.9,209l0,161.6c-2.2,8.1-5.9,15.5-14,18.8c-4.8,1.9-9.9,2.9-15,2.9c-98.7,0.2-197.5,0.2-296.2,0.1
				c-18.5,0-37,0-55.5,0c-17.6,0-28.1-10.5-28.1-28.1c0-49.7,0-99.5,0-149.2c0-13.4,7-23.1,18.9-26.4c1.8-0.6,3.6-0.9,5.5-0.8
				c5.6,0.7,9-2.4,12.8-5.8c46.1-41.3,92.3-82.6,138.6-123.8c0.8-0.7,1.5-1.4,2.6-2.5c-6.9-8.9-9.5-18.8-6.9-29.9
				c1.9-8.1,6.8-15.3,13.7-20c13-9.2,31.2-7.7,42.9,3.7c10.8,10.4,15.3,29.1,2.6,46.2c1.1,1,2.2,2.1,3.4,3.1
				c48,42.2,96,84.4,144,126.7c1,0.8,2.2,1.9,3.3,1.9C395.9,187.7,404.8,195.2,408.9,209z M391.8,226.3c0-4,0.1-8,0-12
				c-0.3-6.4-3.4-9.4-9.8-9.6c-1.2,0-2.4,0-3.6,0l-174.1,0H30c-1.7,0-3.5,0-5.2,0.2c-4,0.5-6.6,2.7-7.3,6.7
				c-0.3,1.8-0.5,3.7-0.5,5.6c0,48.4,0,96.8,0,145.2c0,10.6,2.4,13,12.8,13H379c10.3,0,12.8-2.4,12.8-12.7V226.3z M57.9,187.4
				l295.9,0c-0.9-1-1.2-1.4-1.6-1.7c-44.7-39.3-89.4-78.6-134.1-117.8c-1.4-1-3.2-1.4-4.9-1c-5.8,1.5-11.9,1.5-17.7,0
				c-1.8-0.3-3.7,0.2-5.2,1.4c-43.3,38.5-86.5,77-129.7,115.6c-1.1,1-2.4,1.8-3.6,2.8L57.9,187.4z M221.3,34.2c0-0.3,0-0.6,0-0.9
				c-0.4-9-7.7-16.1-16.7-16.3c-9.2-0.1-16.7,7.1-17.1,16.3c0,0.1,0,0.3,0,0.4c0,0.1,0,0.2,0,0.3c0,0.1,0,0.1,0,0.2
				c0,9.3,7.4,16.8,16.7,17C213.6,51.2,221.3,43.6,221.3,34.2L221.3,34.2z"/>
			<path d="M357.7,248.6c0.1,8.1,0,16.3,0,24.4c0,19.3,0,38.7,0,58c0,7.2-4.2,10.8-11.2,10c-3.6-0.4-5.5-2.8-7.2-5.7
				c-10-17.3-20-34.6-30.1-51.8c-0.6-1.1-1.3-2.1-2.6-4.2v23.8c0,9.6,0,19.2,0,28.8c0,3.9-1.5,7.5-5.4,8.4c-2.6,0.6-6.4,0.1-8.4-1.5
				c-2-1.6-3-5-3-7.7c-0.3-10.3-0.1-20.5-0.1-30.8c0-17.3-0.1-34.7,0-52c0-7.1,5.9-11.5,11.6-8.7c2.2,1.1,4.1,3.4,5.4,5.6
				c10.5,17.9,20.9,35.9,31.3,53.9c0.7,1.2,1.6,2.2,2.8,3v-7c0-15.5,0-30.9,0-46.4c0-7,4.5-11,10.5-9.5
				C355.3,240.2,357.6,243.5,357.7,248.6z"/>
			<path d="M266.1,239.3c3.8,0.8,6.4,4.2,6.3,8.1c0,4-2.4,7.5-6.5,7.9c-5.9,0.6-11.9,0.5-17.9,0.6c-2.9,0.1-5.8,0-9.1,0v25.6
				c5.2,0,10.3,0,15.4,0c3.5,0,6.9-0.1,10.4,0.2c4.6,0.4,8,4.4,7.6,8.9c-0.3,3.7-3,6.8-6.6,7.5c-1.8,0.3-3.7,0.4-5.5,0.4
				c-7,0.1-14.1,0.1-21.4,0.1v25.6c7.6,0,15,0,22.4,0c1.8,0,3.7,0.2,5.5,0.6c3.7,1.1,6.1,4.7,5.7,8.6c-0.3,3.9-3.1,7.4-7,7.5
				c-12.2,0.2-24.5,0.2-36.7,0c-3.6-0.1-6-2.6-6.8-6.3c-0.3-1.7-0.5-3.4-0.5-5.1c0-26.2,0-52.5,0-78.8c0-8.9,2.9-11.9,11.6-11.9
				c9.3,0,18.6,0,27.9,0C262.7,238.8,264.4,238.9,266.1,239.3z"/>
			<path d="M187.5,33.3c0.5-8.9,7.9-16,16.9-16c9,0,16.4,7.1,16.9,16c0,0.3,0,0.6,0,0.9v0c-0.2,9.3-7.9,16.8-17.2,16.6
				c-9.2-0.2-16.5-7.6-16.6-16.7c0-0.1,0-0.1,0-0.2C187.5,33.7,187.5,33.5,187.5,33.3z"/>
			<path class="st0" d="M204.4,17.2c-9.1,0-16.4,7.1-16.9,16c0.4-9.1,7.9-16.3,17.1-16.3c9.1,0.1,16.4,7.3,16.7,16.3
				C220.9,24.4,213.5,17.3,204.4,17.2z"/>
			<path class="st0" d="M187.5,33.3c0,0.2,0,0.5,0,0.7c0-0.1,0-0.2,0-0.3C187.5,33.5,187.5,33.4,187.5,33.3z"/>
			<path class="st0" d="M174.8,256.8c8.1,1.3,13.3,9.6,12.4,17.6c-0.2,1.9-0.7,3.7-1.3,5.4c-0.2,0.5-0.4,0.9-0.7,1.4
				c-0.3,0.7-0.7,1.3-1.2,1.9c-1.7,2.4-4,4.3-6.8,5.5c-0.5,0.2-0.9,0.4-1.4,0.5c-0.2,0.1-0.5,0.1-0.8,0.2c-0.2,0.1-0.5,0.1-0.8,0.2
				c-1,0.2-2.1,0.4-3.2,0.4c-5.8,0.2-11.6,0-17.8,0l0-33.3c6.9,0,13.7-0.8,20.3,0.1C174.1,256.7,174.4,256.8,174.8,256.8z"/>
			<path class="st0" d="M185.2,281.1c-0.3,0.7-0.7,1.3-1.2,1.9C184.5,282.4,184.9,281.8,185.2,281.1z"/>
			<path d="M153.4,289.9c6.2,0,12,0.2,17.8,0c1.1-0.1,2.1-0.2,3.2-0.4c0.2-0.1,0.5-0.1,0.8-0.2c0.2-0.1,0.5-0.1,0.8-0.2
				c0.5-0.2,0.9-0.3,1.4-0.5c2.8-1.2,5.1-3.1,6.8-5.5c0.4-0.6,0.8-1.2,1.2-1.9c0.2-0.5,0.4-0.9,0.7-1.4c0.7-1.6,1.2-3.4,1.4-5.4
				c0.8-7.9-4.3-16.3-12.4-17.6c-0.4-0.1-0.7-0.1-1.1-0.2c-6.6-0.9-13.4-0.1-20.3-0.1c0,0,0,0,0,0V289.9z M203.6,265.5
				c3.2,14-3.4,29.4-15.4,36.5c-6.3,3.8-13,5.1-20.2,5.2c-4.8,0-9.5,0-14.7,0c0,8,0.1,15.6,0,23.1c0,1.9-0.2,3.7-0.8,5.5
				c-1.2,3.5-4.8,5.7-8.5,5.3c-3.7-0.2-6.8-3-7.4-6.7c-0.2-1.6-0.3-3.2-0.3-4.8c0-26.4,0-52.8,0-79.1c0-8.8,2.8-11.8,11.7-11.7
				c8.8,0.1,17.6,0,26.3,0.6C188.1,240.3,200.3,251.5,203.6,265.5z"/>
			<path class="st0" d="M153.5,256.6l0,33.3L153.5,256.6C153.4,256.6,153.5,256.6,153.5,256.6z"/>
			<path d="M119,270c0.4,6.6,0.1,13.3,0.1,20l-0.1,0c0,6.8,0.3,13.6-0.1,20.4c-1,16.8-15.7,30.3-33,30.8
				c-16.8,0.4-32.7-12.2-33.9-28.7c-1.1-14.9-1.1-29.8,0-44.7c1.2-16.5,17.5-29.6,33.8-28.9C103.6,239.7,117.9,253,119,270z
				 M102.2,278.6c0-1.6,0-3.2,0-4.8c-0.1-5.2-2-9.8-5.1-12.9c-2.8-2.8-6.5-4.5-10.8-4.8c-1.5-0.1-3,0-4.4,0.3
				c-0.5,0.1-1.1,0.2-1.6,0.4c0,0,0,0,0,0c-1,0.3-2,0.6-2.9,1.1c0,0,0,0,0,0c-5.2,2.5-8.7,7.5-9,14.1c-0.1,1.5-0.1,3-0.2,4.5
				c-0.3,9.1-0.3,18.2,0,27.3c0,1.5,0.1,3,0.2,4.6c0,0.4,0.1,0.9,0.1,1.3c0.1,0.8,0.2,1.6,0.5,2.4c0.1,0.3,0.1,0.5,0.2,0.8
				c0.1,0.2,0.2,0.5,0.3,0.7c0.1,0.2,0.2,0.5,0.3,0.7c0.1,0.2,0.2,0.5,0.3,0.7c0.1,0.2,0.2,0.5,0.3,0.7c0.1,0.2,0.2,0.4,0.4,0.6
				c0,0,0,0.1,0.1,0.1c0.1,0.2,0.2,0.4,0.4,0.6c0.1,0.2,0.3,0.4,0.4,0.6c0.1,0.2,0.3,0.4,0.5,0.6c0.2,0.2,0.3,0.4,0.5,0.6
				c0.2,0.2,0.3,0.4,0.5,0.6c0.2,0.2,0.3,0.4,0.5,0.5c0.2,0.2,0.4,0.3,0.6,0.5c0.6,0.5,1.2,1,1.9,1.4c0.2,0.1,0.4,0.2,0.6,0.4
				c0.2,0.1,0.4,0.2,0.5,0.3c0.2,0.1,0.4,0.2,0.6,0.3c0.3,0.1,0.6,0.2,0.8,0.4c0.2,0.1,0.5,0.2,0.7,0.3c0.5,0.2,1,0.4,1.6,0.5
				c0.5,0.1,1,0.2,1.5,0.3c1.2,0.2,2.4,0.2,3.6,0.1c7.2-0.4,12.9-4.9,15.1-11.5c0.2-0.5,0.3-1.1,0.5-1.6c0.3-1.1,0.4-2.3,0.5-3.5
				c0-0.3,0-0.6,0-0.9c0-0.7,0-1.5,0-2.2c0-4.7,0-9.5,0-14.2C102.2,286.3,102.2,282.5,102.2,278.6z"/>
			<path class="st0" d="M102.2,273.8c0,1.6,0,3.2,0,4.8C102.2,277,102.2,275.4,102.2,273.8c-0.1-5.2-2-9.8-5.1-12.9
				C100.2,264,102.2,268.5,102.2,273.8z"/>
			<path class="st0" d="M102.2,290.2c0,4.7,0.1,9.5,0,14.2c0,0.7,0,1.5,0,2.2c0,0.3,0,0.6,0,0.9c-0.1,1.2-0.2,2.4-0.5,3.5
				c-0.1,0.6-0.3,1.1-0.5,1.6c-2.2,6.6-7.9,11.2-15.1,11.5c-1.2,0.1-2.4,0-3.6-0.1c-0.5-0.1-1-0.2-1.5-0.3c-0.5-0.1-1.1-0.3-1.6-0.5
				c-0.2-0.1-0.5-0.2-0.7-0.3c-0.3-0.1-0.6-0.2-0.8-0.4c-0.2-0.1-0.4-0.2-0.6-0.3c-0.2-0.1-0.3-0.2-0.5-0.3
				c-0.2-0.1-0.4-0.2-0.6-0.4c-0.7-0.4-1.3-0.9-1.9-1.4c-0.2-0.2-0.4-0.3-0.6-0.5c-0.2-0.2-0.4-0.3-0.5-0.5
				c-0.2-0.2-0.3-0.4-0.5-0.6c-0.2-0.2-0.3-0.4-0.5-0.6c-0.2-0.2-0.3-0.4-0.5-0.6c-0.2-0.2-0.3-0.4-0.4-0.6
				c-0.1-0.2-0.3-0.4-0.4-0.6c0,0,0,0-0.1-0.1c-0.1-0.2-0.2-0.4-0.4-0.6c-0.1-0.2-0.2-0.5-0.3-0.7c-0.1-0.2-0.2-0.5-0.3-0.7
				s-0.2-0.5-0.3-0.7c-0.1-0.2-0.2-0.5-0.3-0.7c-0.1-0.2-0.1-0.5-0.2-0.8c-0.2-0.8-0.4-1.5-0.5-2.4c0-0.3,0-0.5-0.1-0.8
				c0-0.1,0-0.3,0-0.5c-0.1-1.5-0.1-3-0.2-4.6c-0.3-9.1-0.3-18.2,0-27.3c0.1-1.5,0.1-3,0.2-4.5c0.3-6.6,3.8-11.6,9-14.1c0,0,0,0,0,0
				c0.9-0.5,1.9-0.8,2.9-1.1c0,0,0,0,0,0c0.5-0.1,1-0.3,1.6-0.4c1.4-0.2,2.9-0.3,4.4-0.3c4.2,0.2,8,2,10.8,4.8
				c3.1,3.2,5.1,7.7,5.1,12.9c0,1.6,0,3.2,0,4.8C102.2,282.5,102.2,286.3,102.2,290.2z"/>
			<path class="st0" d="M102.2,306.6c0-0.7,0-1.5,0-2.2C102.2,305.1,102.2,305.8,102.2,306.6c0,0.3,0,0.6,0,0.9
				C102.2,307.2,102.2,306.9,102.2,306.6z"/>
			<path class="st0" d="M82.5,324c-0.5-0.1-1-0.2-1.5-0.3C81.5,323.8,82,323.9,82.5,324z"/>
			<path class="st0" d="M78.7,322.9c0.2,0.1,0.5,0.2,0.7,0.3C79.2,323.1,78.9,323,78.7,322.9z"/>
			<path class="st0" d="M77.3,322.3c0.2,0.1,0.4,0.2,0.6,0.3C77.7,322.5,77.5,322.4,77.3,322.3z"/>
		</g>
		<g>
		</g>
	</g>
</g>
</svg>
