<svg id="Layer_1" data-name="Layer 1" xmlns="http://www.w3.org/2000/svg" viewBox="0 0 344.97 202.75">
  <defs>
    <style>
      .cls-1 {
        fill: #fff;
      }
    </style>
  </defs>
  <g>
    <path class="cls-1" d="M426.93,303.08c.87.8,1.77,1.62,2.66,2.45,3.87,3.6,8.22,4.22,13.05,2.19,9.07-3.82,15.05-15.4,12.88-25-1.57-7-6.32-11.48-13.34-12.25a85.16,85.16,0,0,0-9.72,0c-6.61.05-10-2.5-12.45-8.67-1.71-4.34-.59-8.35.45-12.5,2.12-8.37-1.18-13.58-9.51-15.19-9.54-1.86-19-.89-28.37,1.17-4.48,1-6.72,4.74-5.48,9.23a26.49,26.49,0,0,0,3.7,7.8c1.61,2.33,2.26,4.08.12,6.43a8,8,0,0,0-1.71,4.26,8.8,8.8,0,0,0,4.41,9.13c3.36,2.05,6.76,1.87,10.22,0,1.07-.56,3.12-1.15,3.62-.64,5.5,5.56,10.79,11.33,16.08,17-6.14,7.68-6.78,11.82-2.71,16.13S418.77,308.47,426.93,303.08Zm-105.77-72c-.26,5.37,2.78,9.5,7.45,10.45a9.3,9.3,0,0,0,10.74-6c.9-2.72,2.18-3,4.69-2.39,6.57,1.56,11.41-.78,14.38-6.87,4.21-8.62,2.88-16.85-2.61-24.36s-14.59-8.43-21.78-2.57c-1.22,1-2.39,2-3.57,3.07-6.52,5.68-11.89,5.55-17.85-.78a32.12,32.12,0,0,1-4.12-6.46c-1-1.85-1.68-3.93-2.77-5.74-4.07-6.74-8.38-8.13-15.61-5-8.92,3.82-16.28,9.84-22.9,16.78a7,7,0,0,0,.38,10.48c2.31,2,5.36,3.15,7.9,4.93a5.9,5.9,0,0,1,2.47,3.28c.7,4.36,3.26,7.74,7.22,8.78a9.21,9.21,0,0,0,10.26-4c1.31-2.05,2.72-2.25,4.76-1.75,5.88,1.43,11.76,2.86,17.67,4.13C320.4,227.55,322.18,228.35,321.16,231.09Z" transform="translate(-111 -182.81)"/>
    <path class="cls-1" d="M111,381.78c7.21-10.13,14.51-20.19,21.61-30.39,13-18.63,26.28-37,42-53.45,17.73-18.63,37.57-34.29,61.81-43.85,35.11-13.83,68.82-10.05,101.36,7.84,21.86,12,40.22,28.45,55.48,47.9,18.07,23,34.93,47,52.24,70.63.77,1.05.83,2.62,1.22,4a16,16,0,0,1-3.72,1c-8.08.09-16.18-.21-24.25.14a12.57,12.57,0,0,1-12.07-6.39c-3-4.74-5.88-9.55-8.63-14.42-7-12.4-13.89-24.87-20.84-37.29a6.23,6.23,0,0,0-2.7-2.69c-.07,1.39-.19,2.78-.2,4.17,0,16.39.07,32.79-.1,49.18,0,2-.89,5.35-2.12,5.74a16.8,16.8,0,0,1-8.76,0c-1-.26-1.94-3.13-2-4.83-.2-9-.1-18-.1-26.94,0-13.7-.09-27.4.06-41.1a11.64,11.64,0,0,0-3.76-8.88c-11-11.3-23.48-20.49-38.22-26.39-1.11-.45-2.26-.79-3.91-1.35-.14,1.91-.36,3.41-.36,4.91q0,49.17,0,98.36c0,6.39-4.71,9.42-10.55,6.62a5.45,5.45,0,0,1-2.2-3.09,13.25,13.25,0,0,1-.21-4q0-50.7,0-101.4c0-5.08-.37-5.53-5.34-6.24a123,123,0,0,0-36.55.16c-3.46.54-4.44,2.12-4.42,5.36.09,18.75,0,37.5,0,56.25,0,15.72.09,31.44-.1,47.16,0,2-1.12,5.24-2.36,5.58a17.6,17.6,0,0,1-8.75-.35c-.92-.24-1.63-3-1.67-4.64-.16-8.08-.07-16.16-.07-24.25q0-37.56,0-75.12c0-5.05-.56-5.38-5.12-3.47-15.31,6.41-28.07,16.33-39.07,28.58a9.84,9.84,0,0,0-2,6.08c-.14,22.34-.09,44.69-.09,67,0,6.11-5.44,9.41-10.7,6.17-1.3-.8-2.12-3.36-2.14-5.13-.16-15.6-.08-31.21-.11-46.82a16,16,0,0,0-1-5.95,25.64,25.64,0,0,0-2.43,3.22c-7.78,14.4-15.45,28.86-23.28,43.23a80.72,80.72,0,0,1-6.13,9.23,8.87,8.87,0,0,1-7.57,3.67c-9.54-.07-19.09,0-28.63-.07a14.46,14.46,0,0,1-3.48-.92Z" transform="translate(-111 -182.81)"/>
    <path class="cls-1" d="M426.93,303.08c-8.16,5.39-12.13,5.76-16.1,1.55s-3.43-8.45,2.71-16.13c-5.29-5.67-10.58-11.44-16.08-17-.5-.51-2.55.08-3.62.64-3.46,1.84-6.86,2-10.22,0a8.8,8.8,0,0,1-4.41-9.13,8,8,0,0,1,1.71-4.26c2.14-2.35,1.49-4.1-.12-6.43a26.49,26.49,0,0,1-3.7-7.8c-1.24-4.49,1-8.24,5.48-9.23,9.37-2.06,18.83-3,28.37-1.17,8.33,1.61,11.63,6.82,9.51,15.19-1,4.15-2.16,8.16-.45,12.5,2.43,6.17,5.84,8.72,12.45,8.67a85.16,85.16,0,0,1,9.72,0c7,.77,11.77,5.3,13.34,12.25,2.17,9.59-3.81,21.17-12.88,25-4.83,2-9.18,1.41-13.05-2.19C428.7,304.7,427.8,303.88,426.93,303.08Z" transform="translate(-111 -182.81)"/>
    <path class="cls-1" d="M321.16,231.09c1-2.74-.76-3.54-3.29-4.09-5.91-1.27-11.79-2.7-17.67-4.13-2-.5-3.45-.3-4.76,1.75a9.21,9.21,0,0,1-10.26,4c-4-1-6.52-4.42-7.22-8.78a5.9,5.9,0,0,0-2.47-3.28c-2.54-1.78-5.59-2.92-7.9-4.93a7,7,0,0,1-.38-10.48c6.62-6.94,14-13,22.9-16.78,7.23-3.09,11.54-1.7,15.61,5,1.09,1.81,1.73,3.89,2.77,5.74a32.12,32.12,0,0,0,4.12,6.46c6,6.33,11.33,6.46,17.85.78,1.18-1,2.35-2.08,3.57-3.07,7.19-5.86,16.29-4.94,21.78,2.57s6.82,15.74,2.61,24.36c-3,6.09-7.81,8.43-14.38,6.87-2.51-.59-3.79-.33-4.69,2.39a9.3,9.3,0,0,1-10.74,6C323.94,240.59,320.9,236.46,321.16,231.09Z" transform="translate(-111 -182.81)"/>
  </g>
</svg>
